<svg xmlns="http://www.w3.org/2000/svg" viewBox="0 0 100 116">
  <defs>
    <clipPath id="lc">
      <path d="M50,4 C74,13 92,38 90,60 C88,78 76,91 62,97 L50,105 L38,97 C24,91 12,78 10,60 C8,38 26,13 50,4Z"/>
    </clipPath>
    <pattern id="ms" x="0" y="0" width="100" height="7" patternUnits="userSpaceOnUse">
      <rect width="100" height="7" fill="#55b372"/>
      <rect y="2.5" width="100" height="2.5" fill="#88d8a0"/>
    </pattern>
  </defs>
  <path d="M50,4 C74,13 92,38 90,60 C88,78 76,91 62,97 L50,105 L38,97 C24,91 12,78 10,60 C8,38 26,13 50,4Z" fill="#1b3d22"/>
  <polygon points="50,4 10,60 50,60" fill="url(#ms)" clip-path="url(#lc)"/>
  <polygon points="90,60 50,60 50,105" fill="url(#ms)" clip-path="url(#lc)"/>
  <line x1="50" y1="4"  x2="10" y2="60"  stroke="#0d1a0f" stroke-width="1.4" clip-path="url(#lc)"/>
  <line x1="50" y1="4"  x2="90" y2="60"  stroke="#0d1a0f" stroke-width="1.4" clip-path="url(#lc)"/>
  <line x1="10" y1="60" x2="50" y2="105" stroke="#0d1a0f" stroke-width="1.4" clip-path="url(#lc)"/>
  <line x1="90" y1="60" x2="50" y2="105" stroke="#0d1a0f" stroke-width="1.4" clip-path="url(#lc)"/>
  <polygon points="50,42 64,57 50,72 36,57" fill="#2d6035" stroke="#0d1a0f" stroke-width="1.8" clip-path="url(#lc)"/>
  <path d="M50,4 C74,13 92,38 90,60 C88,78 76,91 62,97 L50,105 L38,97 C24,91 12,78 10,60 C8,38 26,13 50,4Z" fill="none" stroke="#0d1a0f" stroke-width="2.5"/>
  <path d="M38,97 C30,106 20,111 18,108 C16,105 26,96 38,97Z" fill="#55b372" stroke="#0d1a0f" stroke-width="1.8"/>
  <path d="M62,97 C70,106 80,111 82,108 C84,105 74,96 62,97Z" fill="#55b372" stroke="#0d1a0f" stroke-width="1.8"/>
</svg>
