<?xml version="1.0" encoding="UTF-8"?>
<!DOCTYPE svg PUBLIC "-//W3C//DTD SVG 1.1//EN" "http://www.w3.org/Graphics/SVG/1.1/DTD/svg11.dtd">
<!-- Creator: CorelDRAW X8 -->
<svg xmlns="http://www.w3.org/2000/svg" xml:space="preserve" width="297mm" height="210mm" version="1.1" style="shape-rendering:geometricPrecision; text-rendering:geometricPrecision; image-rendering:optimizeQuality; fill-rule:evenodd; clip-rule:evenodd"
viewBox="0 0 29700 21000"
 xmlns:xlink="http://www.w3.org/1999/xlink">
 <defs>
  <style type="text/css">
   <![CDATA[
    .fil0 {fill:none}
    .fil3 {fill:#2E814D}
    .fil4 {fill:#3C5744}
    .fil2 {fill:#6FA981}
    .fil1 {fill:black;fill-rule:nonzero}
   ]]>
  </style>
 </defs>
 <g id="Capa_x0020_1">
  <metadata id="CorelCorpID_0Corel-Layer"/>
  <rect class="fil0" x="2257" y="911" width="24830" height="18269"/>
  <g id="_55661277392">
   <path class="fil1" d="M3571 12671l0 2651 303 0 0 -837 693 0c655,0 1034,-337 1034,-924 0,-564 -379,-890 -1034,-890l-996 0zm303 292l682 0c477,0 753,204 753,606 0,412 -276,624 -753,624l-682 0 0 -1230z"/>
   <path class="fil1" d="M8819 14652l296 670 329 0 -1185 -2651 -314 0 -1189 2651 322 0 295 -670 1446 0zm-128 -292l-1189 0 590 -1344 599 1344z"/>
   <polygon class="fil1" points="11201,15322 11201,12671 10898,12671 10898,15322 "/>
   <path class="fil1" d="M13829 12660c-549,0 -916,269 -916,685 0,951 1492,580 1488,1276 0,254 -238,409 -621,409 -299,0 -636,-136 -882,-375l-137 273c250,239 629,405 1015,405 568,0 958,-284 958,-727 4,-962 -1488,-606 -1488,-1287 0,-224 224,-352 564,-352 212,0 493,64 731,223l129 -284c-220,-148 -534,-246 -841,-246z"/>
   <path class="fil1" d="M18070 14652l296 670 329 0 -1185 -2651 -314 0 -1189 2651 322 0 295 -670 1446 0zm-128 -292l-1189 0 590 -1344 599 1344z"/>
   <path class="fil1" d="M21884 15322l344 0 -621 -901c383,-125 595,-421 595,-860 0,-564 -383,-890 -1045,-890l-1008 0 0 2651 303 0 0 -837 705 0c60,0 121,-4 178,-8l549 845zm-1432 -1129l0 -1230 705 0c480,0 753,204 753,606 0,412 -273,624 -753,624l-705 0z"/>
   <polygon class="fil1" points="25723,12963 25723,12671 23925,12671 23925,15322 25773,15322 25773,15034 24228,15034 24228,14125 25564,14125 25564,13834 24228,13834 24228,12963 "/>
  </g>
  <g id="_55661275408">
   <polygon class="fil2" points="15900,9093 14672,10322 13443,9093 14672,7864 "/>
   <polygon class="fil2" points="12993,4145 14672,5824 16350,4145 14672,2467 "/>
   <path class="fil3" d="M16471 4266l-1714 1714 0 1728 1714 1714 0 0 65 -65c700,-701 1087,-1597 1158,-2513l105 0 0 0 -105 0c-71,-916 -458,-1812 -1158,-2513l-65 -65 0 0z"/>
   <path class="fil4" d="M13301 4694l1285 1286 0 1728 -1713 1714 0 0 -65 -65c-701,-701 -1087,-1597 -1158,-2513l-105 0 0 0 105 0c71,-916 457,-1812 1158,-2513l65 -65 0 0 428 428z"/>
   <path class="fil1" d="M11479 6844c71,-960 474,-1900 1208,-2633l65 -66 0 0 1301 -1301 619 -619 0 0 0 0 36 37 1630 1630 253 253 0 0 65 65c734,734 1137,1674 1209,2634l-171 0c-71,-916 -458,-1812 -1158,-2513l-65 -65 -1229 1229c449,450 900,899 1349,1349l-1349 1349 1229 1229 65 -65c700,-701 1087,-1597 1158,-2513l171 0c-72,960 -475,1900 -1209,2634l-65 65 0 0 -120 120 0 0 0 0 -121 -120 -121 -121 -208 -208 -1349 1349 -1350 -1349 -208 208 -60 60 -61 61 -120 120 -121 -120 0 0 -65 -66c-734,-734 -1137,-1673 -1209,-2633l172 0c71,916 457,1812 1158,2513l65 65 1228 -1229 -1349 -1349 1349 -1349 -1228 -1229 -65 65c-701,701 -1087,1597 -1158,2513l-171 0zm3193 3478l1228 -1229 -329 -329 -899 899 0 0 -329 329 329 330zm-450 -450l450 -450 0 0 779 -779 -330 -329 -190 191 -67 67 -192 192 0 0 -779 779 329 329zm-450 -450l779 -779 -329 -329 -779 779 329 329zm2578 -5277l-329 -329 -1229 1229c110,110 219,220 329,329l1229 -1229zm-450 -449l-329 -330 -1678 1679 329 329 1678 -1678zm-449 -450l-329 -329 -1679 1678 329 329 1679 -1678zm-450 -450l-329 -329 -1679 1678 330 329 1678 -1678zm-415 3184l-364 -365 -1229 1229 1229 1229 364 -365 0 -1728zm-243 2213l329 329 329 -329 -329 -329 -329 329zm778 -120l1229 -1229 -1229 -1229 -364 365 0 1728 364 365zm-778 -2578l329 329 329 -329 -329 -329 -329 329z"/>
   <polygon class="fil1" points="11009,11521 18335,11521 18335,11370 11009,11370 "/>
   <polygon class="fil1" points="11009,17866 18335,17866 18335,17714 11009,17714 "/>
  </g>
  <path class="fil1" d="M3622 16246l253 0c36,0 63,-7 81,-23 19,-16 28,-40 28,-70 0,-30 -9,-54 -28,-71 -18,-16 -44,-25 -78,-25l-256 0 0 189zm-72 318l0 -573 329 0c56,0 100,14 132,42 32,27 48,65 48,113 0,50 -16,91 -47,121 -31,31 -72,46 -123,46l-267 0 0 251 -72 0zm1079 -221l253 0 -127 -254 -126 254zm-184 221l280 -573 60 0 284 573 -78 0 -78 -154 -316 0 -76 154 -76 0zm1066 0l0 -576 72 0 0 576 -72 0zm544 -86l41 -61c41,31 83,55 127,72 43,16 87,24 130,24 53,0 96,-11 129,-33 33,-23 49,-52 49,-87 0,-28 -11,-51 -35,-69 -24,-18 -57,-29 -99,-33 -10,-1 -24,-2 -43,-3 -94,-6 -159,-17 -193,-33 -27,-13 -47,-29 -61,-49 -14,-21 -20,-44 -20,-69 0,-46 20,-84 61,-114 41,-30 95,-44 161,-44 48,0 95,7 141,23 47,16 91,39 133,70l-41 60c-36,-29 -73,-50 -112,-65 -39,-14 -79,-21 -120,-21 -43,0 -79,8 -107,25 -28,17 -42,38 -42,63 0,10 2,19 7,28 4,8 11,16 20,23 24,18 75,29 153,34 36,2 64,4 84,7 58,6 104,25 138,56 34,30 51,68 51,113 0,54 -23,98 -70,132 -47,35 -108,52 -183,52 -57,0 -110,-8 -159,-25 -49,-16 -96,-42 -140,-76zm1142 -135l252 0 -126 -254 -126 254zm-185 221l281 -573 59 0 284 573 -77 0 -78 -154 -317 0 -76 154 -76 0zm999 -246l72 0 0 89c0,37 13,64 40,80 27,17 72,25 133,25 60,0 101,-10 123,-31 22,-21 33,-60 33,-119l0 -371 71 0 0 391c0,70 -18,121 -55,151 -37,31 -99,46 -185,46 -79,0 -137,-14 -175,-42 -38,-28 -57,-71 -57,-128l0 -91zm992 246l0 -576 73 0 0 576 -73 0zm544 -86l42 -61c40,31 83,55 126,72 44,16 88,24 130,24 53,0 97,-11 129,-33 34,-23 50,-52 50,-87 0,-28 -12,-51 -36,-69 -23,-18 -56,-29 -98,-33 -10,-1 -24,-2 -43,-3 -95,-6 -159,-17 -193,-33 -27,-13 -47,-29 -61,-49 -14,-21 -21,-44 -21,-69 0,-46 21,-84 62,-114 41,-30 95,-44 160,-44 48,0 95,7 142,23 47,16 91,39 133,70l-42 60c-35,-29 -72,-50 -111,-65 -39,-14 -79,-21 -120,-21 -44,0 -79,8 -107,25 -28,17 -42,38 -42,63 0,10 2,19 6,28 5,8 12,16 21,23 24,18 75,29 153,34 36,2 64,4 84,7 58,6 104,25 138,56 34,30 51,68 51,113 0,54 -24,98 -70,132 -47,35 -108,52 -183,52 -58,0 -111,-8 -160,-25 -49,-16 -95,-42 -140,-76zm1041 86l0 -573 66 0 231 351 233 -351 65 0 0 573 -70 0 0 -447 -228 339 -227 -339 0 447 -70 0zm1368 -52c64,0 118,-22 160,-66 42,-44 63,-99 63,-167 0,-68 -21,-124 -63,-168 -42,-43 -95,-65 -160,-65 -64,0 -118,22 -160,66 -42,44 -63,100 -63,167 0,68 21,123 63,167 42,44 96,66 160,66zm0 67c-86,0 -157,-28 -213,-85 -56,-56 -84,-128 -84,-215 0,-87 28,-159 84,-216 56,-56 127,-84 213,-84 85,0 157,28 213,85 56,57 85,128 85,215 0,87 -29,159 -85,215 -56,57 -127,85 -213,85zm1863 -143l-176 -208c-47,21 -83,44 -106,71 -24,27 -35,58 -35,92 0,36 12,66 37,88 26,23 59,34 100,34 30,0 61,-6 91,-19 31,-13 60,-33 89,-58zm152 -56c-7,11 -16,21 -26,32 -9,10 -19,20 -30,30l102 118 -91 0 -64 -72c-39,32 -76,55 -111,70 -35,15 -72,22 -111,22 -65,0 -117,-17 -156,-51 -38,-33 -58,-79 -58,-135 0,-45 14,-85 42,-120 28,-35 71,-67 130,-96l-157 -187 376 0 40 63 -269 0 280 331c15,-15 27,-27 35,-36 8,-9 16,-19 23,-28l45 59zm1288 -37l252 0 -126 -254 -126 254zm-185 221l281 -573 59 0 284 573 -77 0 -78 -154 -317 0 -75 154 -77 0zm1133 -318l253 0c36,0 64,-7 82,-23 19,-16 28,-40 28,-70 0,-30 -9,-54 -28,-71 -18,-16 -44,-25 -78,-25l-257 0 0 189zm-71 318l0 -573 329 0c56,0 100,15 132,43 31,28 47,67 47,117 0,41 -12,77 -37,106 -25,30 -58,48 -98,55l143 252 -79 0 -143 -251 -223 0 0 251 -71 0zm1251 -53l-35 -73 79 0 29 60c45,-17 80,-45 105,-84 25,-39 37,-84 37,-135 0,-67 -21,-123 -63,-167 -42,-44 -96,-66 -160,-66 -64,0 -118,22 -160,66 -42,44 -63,100 -63,167 0,67 21,123 62,166 42,44 95,66 159,66l10 0zm30 66c-5,1 -11,1 -18,2 -6,0 -15,0 -26,0 -83,0 -152,-28 -207,-85 -56,-58 -83,-129 -83,-215 0,-87 28,-159 84,-216 56,-56 126,-84 212,-84 86,0 157,28 213,85 57,57 85,128 85,215 0,65 -16,122 -49,171 -33,50 -79,87 -138,111l38 79 -80 0 -31 -63zm795 -586l0 371c0,60 12,100 34,120 22,20 66,30 132,30 65,0 109,-10 131,-30 22,-20 33,-60 33,-120l0 -371 71 0 0 391c0,70 -18,121 -55,151 -36,31 -97,46 -181,46 -84,0 -144,-15 -181,-46 -36,-30 -55,-81 -55,-151l0 -391 71 0zm915 573l0 -576 72 0 0 576 -72 0zm699 0l0 -507 -242 0 0 -66 554 0 0 66 -241 0 0 507 -71 0zm697 0l0 -573 451 0 0 66 -380 0 0 168 230 0 0 66 -230 0 0 207 403 0 0 66 -474 0zm1391 -182l58 42c-26,50 -62,88 -108,115 -46,27 -98,40 -156,40 -86,0 -157,-28 -213,-85 -55,-56 -83,-128 -83,-215 0,-87 28,-159 84,-216 56,-56 126,-84 212,-84 53,0 101,11 145,34 43,24 79,57 106,100l-60 42c-17,-34 -44,-61 -77,-80 -34,-20 -72,-29 -114,-29 -64,0 -118,22 -160,66 -42,44 -63,100 -63,167 0,68 21,123 63,167 42,44 96,66 160,66 45,0 85,-11 120,-33 35,-22 64,-55 86,-97zm639 182l0 -507 -241 0 0 -66 554 0 0 66 -241 0 0 507 -72 0zm754 -573l0 371c0,60 11,100 34,120 22,20 66,30 131,30 66,0 110,-10 132,-30 22,-20 33,-60 33,-120l0 -371 71 0 0 391c0,70 -18,121 -55,151 -37,31 -97,46 -181,46 -84,0 -144,-15 -181,-46 -37,-30 -55,-81 -55,-151l0 -391 71 0zm982 255l253 0c36,0 63,-7 81,-23 19,-16 28,-40 28,-70 0,-30 -9,-54 -28,-71 -18,-16 -44,-25 -78,-25l-256 0 0 189zm-72 318l0 -573 329 0c56,0 100,15 132,43 32,28 48,67 48,117 0,41 -13,77 -38,106 -25,30 -57,48 -98,55l143 252 -79 0 -143 -251 -222 0 0 251 -72 0zm1091 -221l253 0 -127 -254 -126 254zm-185 221l281 -573 60 0 284 573 -78 0 -78 -154 -316 0 -76 154 -77 0z"/>
 </g>
</svg>
